{
 "cells": [
  {
   "cell_type": "code",
   "execution_count": 4,
   "metadata": {},
   "outputs": [
    {
     "name": "stderr",
     "output_type": "stream",
     "text": [
      "ffmpeg version 4.2.2 Copyright (c) 2000-2019 the FFmpeg developers\n",
      "  built with gcc 7.3.0 (crosstool-NG 1.23.0.449-a04d0)\n",
      "  configuration: --prefix=/home/jini1114/.conda/envs/mdx-net --cc=/tmp/build/80754af9/ffmpeg_1587154242452/_build_env/bin/x86_64-conda_cos6-linux-gnu-cc --disable-doc --enable-avresample --enable-gmp --enable-hardcoded-tables --enable-libfreetype --enable-libvpx --enable-pthreads --enable-libopus --enable-postproc --enable-pic --enable-pthreads --enable-shared --enable-static --enable-version3 --enable-zlib --enable-libmp3lame --disable-nonfree --enable-gpl --enable-gnutls --disable-openssl --enable-libopenh264 --enable-libx264\n",
      "  libavutil      56. 31.100 / 56. 31.100\n",
      "  libavcodec     58. 54.100 / 58. 54.100\n",
      "  libavformat    58. 29.100 / 58. 29.100\n",
      "  libavdevice    58.  8.100 / 58.  8.100\n",
      "  libavfilter     7. 57.100 /  7. 57.100\n",
      "  libavresample   4.  0.  0 /  4.  0.  0\n",
      "  libswscale      5.  5.100 /  5.  5.100\n",
      "  libswresample   3.  5.100 /  3.  5.100\n",
      "  libpostproc    55.  5.100 / 55.  5.100\n",
      "Input #0, wav, from '/home/jini1114/git/mir-svc/data/raw_data/IU/1.wav':\n",
      "  Metadata:\n",
      "    comment         : Bwf\n",
      "    encoded_by      : DaVinci Resolve\n",
      "    originator_reference: USRESRESOLVE00000173644195213207\n",
      "    date            : 2022-04-18\n",
      "    creation_time   : 17:36:44\n",
      "    time_reference  : 172800000\n",
      "    coding_history  : A=PCM,F=48000,W=16,M=stereo,T=Resolve \n",
      "                    : \n",
      "  Duration: 00:00:44.15, bitrate: 1536 kb/s\n",
      "    Stream #0:0: Audio: pcm_s16le ([1][0][0][0] / 0x0001), 48000 Hz, stereo, s16, 1536 kb/s\n",
      "Output #0, wav, to '/home/jini1114/git/mir-svc/data/raw_data/IU0_1.wav':\n",
      "  Metadata:\n",
      "    ICMT            : Bwf\n",
      "    ITCH            : DaVinci Resolve\n",
      "    originator_reference: USRESRESOLVE00000173644195213207\n",
      "    ICRD            : 2022-04-18\n",
      "    coding_history  : A=PCM,F=48000,W=16,M=stereo,T=Resolve \n",
      "                    : \n",
      "    time_reference  : 172800000\n",
      "    ISFT            : Lavf58.29.100\n",
      "    Stream #0:0: Audio: pcm_s16le ([1][0][0][0] / 0x0001), 48000 Hz, stereo, s16, 1536 kb/s\n",
      "Stream mapping:\n",
      "  Stream #0:0 -> #0:0 (copy)\n",
      "Press [q] to stop, [?] for help\n",
      "size=     940kB time=00:00:04.99 bitrate=1542.8kbits/s speed=3.21e+03x    \n",
      "video:0kB audio:940kB subtitle:0kB other streams:0kB global headers:0kB muxing overhead: 0.013921%\n",
      "ffmpeg version 4.2.2 Copyright (c) 2000-2019 the FFmpeg developers\n",
      "  built with gcc 7.3.0 (crosstool-NG 1.23.0.449-a04d0)\n",
      "  configuration: --prefix=/home/jini1114/.conda/envs/mdx-net --cc=/tmp/build/80754af9/ffmpeg_1587154242452/_build_env/bin/x86_64-conda_cos6-linux-gnu-cc --disable-doc --enable-avresample --enable-gmp --enable-hardcoded-tables --enable-libfreetype --enable-libvpx --enable-pthreads --enable-libopus --enable-postproc --enable-pic --enable-pthreads --enable-shared --enable-static --enable-version3 --enable-zlib --enable-libmp3lame --disable-nonfree --enable-gpl --enable-gnutls --disable-openssl --enable-libopenh264 --enable-libx264\n",
      "  libavutil      56. 31.100 / 56. 31.100\n",
      "  libavcodec     58. 54.100 / 58. 54.100\n",
      "  libavformat    58. 29.100 / 58. 29.100\n",
      "  libavdevice    58.  8.100 / 58.  8.100\n",
      "  libavfilter     7. 57.100 /  7. 57.100\n",
      "  libavresample   4.  0.  0 /  4.  0.  0\n",
      "  libswscale      5.  5.100 /  5.  5.100\n",
      "  libswresample   3.  5.100 /  3.  5.100\n",
      "  libpostproc    55.  5.100 / 55.  5.100\n",
      "Input #0, wav, from '/home/jini1114/git/mir-svc/data/raw_data/IU/1.wav':\n",
      "  Metadata:\n",
      "    comment         : Bwf\n",
      "    encoded_by      : DaVinci Resolve\n",
      "    originator_reference: USRESRESOLVE00000173644195213207\n",
      "    date            : 2022-04-18\n",
      "    creation_time   : 17:36:44\n",
      "    time_reference  : 172800000\n",
      "    coding_history  : A=PCM,F=48000,W=16,M=stereo,T=Resolve \n",
      "                    : \n",
      "  Duration: 00:00:44.15, bitrate: 1536 kb/s\n",
      "    Stream #0:0: Audio: pcm_s16le ([1][0][0][0] / 0x0001), 48000 Hz, stereo, s16, 1536 kb/s\n",
      "Output #0, wav, to '/home/jini1114/git/mir-svc/data/raw_data/IU1_1.wav':\n",
      "  Metadata:\n",
      "    ICMT            : Bwf\n",
      "    ITCH            : DaVinci Resolve\n",
      "    originator_reference: USRESRESOLVE00000173644195213207\n",
      "    ICRD            : 2022-04-18\n",
      "    coding_history  : A=PCM,F=48000,W=16,M=stereo,T=Resolve \n",
      "                    : \n",
      "    time_reference  : 172800000\n",
      "    ISFT            : Lavf58.29.100\n",
      "    Stream #0:0: Audio: pcm_s16le ([1][0][0][0] / 0x0001), 48000 Hz, stereo, s16, 1536 kb/s\n",
      "Stream mapping:\n",
      "  Stream #0:0 -> #0:0 (copy)\n",
      "Press [q] to stop, [?] for help\n",
      "size=     936kB time=00:00:04.98 bitrate=1538.7kbits/s speed=2.15e+03x    \n",
      "video:0kB audio:936kB subtitle:0kB other streams:0kB global headers:0kB muxing overhead: 0.013981%\n",
      "ffmpeg version 4.2.2 Copyright (c) 2000-2019 the FFmpeg developers\n",
      "  built with gcc 7.3.0 (crosstool-NG 1.23.0.449-a04d0)\n",
      "  configuration: --prefix=/home/jini1114/.conda/envs/mdx-net --cc=/tmp/build/80754af9/ffmpeg_1587154242452/_build_env/bin/x86_64-conda_cos6-linux-gnu-cc --disable-doc --enable-avresample --enable-gmp --enable-hardcoded-tables --enable-libfreetype --enable-libvpx --enable-pthreads --enable-libopus --enable-postproc --enable-pic --enable-pthreads --enable-shared --enable-static --enable-version3 --enable-zlib --enable-libmp3lame --disable-nonfree --enable-gpl --enable-gnutls --disable-openssl --enable-libopenh264 --enable-libx264\n",
      "  libavutil      56. 31.100 / 56. 31.100\n",
      "  libavcodec     58. 54.100 / 58. 54.100\n",
      "  libavformat    58. 29.100 / 58. 29.100\n",
      "  libavdevice    58.  8.100 / 58.  8.100\n",
      "  libavfilter     7. 57.100 /  7. 57.100\n",
      "  libavresample   4.  0.  0 /  4.  0.  0\n",
      "  libswscale      5.  5.100 /  5.  5.100\n",
      "  libswresample   3.  5.100 /  3.  5.100\n",
      "  libpostproc    55.  5.100 / 55.  5.100\n",
      "Input #0, wav, from '/home/jini1114/git/mir-svc/data/raw_data/IU/1.wav':\n",
      "  Metadata:\n",
      "    comment         : Bwf\n",
      "    encoded_by      : DaVinci Resolve\n",
      "    originator_reference: USRESRESOLVE00000173644195213207\n",
      "    date            : 2022-04-18\n",
      "    creation_time   : 17:36:44\n",
      "    time_reference  : 172800000\n",
      "    coding_history  : A=PCM,F=48000,W=16,M=stereo,T=Resolve \n",
      "                    : \n",
      "  Duration: 00:00:44.15, bitrate: 1536 kb/s\n",
      "    Stream #0:0: Audio: pcm_s16le ([1][0][0][0] / 0x0001), 48000 Hz, stereo, s16, 1536 kb/s\n",
      "Output #0, wav, to '/home/jini1114/git/mir-svc/data/raw_data/IU2_1.wav':\n",
      "  Metadata:\n",
      "    ICMT            : Bwf\n",
      "    ITCH            : DaVinci Resolve\n",
      "    originator_reference: USRESRESOLVE00000173644195213207\n",
      "    ICRD            : 2022-04-18\n",
      "    coding_history  : A=PCM,F=48000,W=16,M=stereo,T=Resolve \n",
      "                    : \n",
      "    time_reference  : 172800000\n",
      "    ISFT            : Lavf58.29.100\n",
      "    Stream #0:0: Audio: pcm_s16le ([1][0][0][0] / 0x0001), 48000 Hz, stereo, s16, 1536 kb/s\n",
      "Stream mapping:\n",
      "  Stream #0:0 -> #0:0 (copy)\n",
      "Press [q] to stop, [?] for help\n",
      "size=     940kB time=00:00:04.99 bitrate=1541.1kbits/s speed=1.91e+03x    \n",
      "video:0kB audio:940kB subtitle:0kB other streams:0kB global headers:0kB muxing overhead: 0.013921%\n",
      "ffmpeg version 4.2.2 Copyright (c) 2000-2019 the FFmpeg developers\n",
      "  built with gcc 7.3.0 (crosstool-NG 1.23.0.449-a04d0)\n",
      "  configuration: --prefix=/home/jini1114/.conda/envs/mdx-net --cc=/tmp/build/80754af9/ffmpeg_1587154242452/_build_env/bin/x86_64-conda_cos6-linux-gnu-cc --disable-doc --enable-avresample --enable-gmp --enable-hardcoded-tables --enable-libfreetype --enable-libvpx --enable-pthreads --enable-libopus --enable-postproc --enable-pic --enable-pthreads --enable-shared --enable-static --enable-version3 --enable-zlib --enable-libmp3lame --disable-nonfree --enable-gpl --enable-gnutls --disable-openssl --enable-libopenh264 --enable-libx264\n",
      "  libavutil      56. 31.100 / 56. 31.100\n",
      "  libavcodec     58. 54.100 / 58. 54.100\n",
      "  libavformat    58. 29.100 / 58. 29.100\n",
      "  libavdevice    58.  8.100 / 58.  8.100\n",
      "  libavfilter     7. 57.100 /  7. 57.100\n",
      "  libavresample   4.  0.  0 /  4.  0.  0\n",
      "  libswscale      5.  5.100 /  5.  5.100\n",
      "  libswresample   3.  5.100 /  3.  5.100\n",
      "  libpostproc    55.  5.100 / 55.  5.100\n",
      "Input #0, wav, from '/home/jini1114/git/mir-svc/data/raw_data/IU/1.wav':\n",
      "  Metadata:\n",
      "    comment         : Bwf\n",
      "    encoded_by      : DaVinci Resolve\n",
      "    originator_reference: USRESRESOLVE00000173644195213207\n",
      "    date            : 2022-04-18\n",
      "    creation_time   : 17:36:44\n",
      "    time_reference  : 172800000\n",
      "    coding_history  : A=PCM,F=48000,W=16,M=stereo,T=Resolve \n",
      "                    : \n",
      "  Duration: 00:00:44.15, bitrate: 1536 kb/s\n",
      "    Stream #0:0: Audio: pcm_s16le ([1][0][0][0] / 0x0001), 48000 Hz, stereo, s16, 1536 kb/s\n",
      "Output #0, wav, to '/home/jini1114/git/mir-svc/data/raw_data/IU3_1.wav':\n",
      "  Metadata:\n",
      "    ICMT            : Bwf\n",
      "    ITCH            : DaVinci Resolve\n",
      "    originator_reference: USRESRESOLVE00000173644195213207\n",
      "    ICRD            : 2022-04-18\n",
      "    coding_history  : A=PCM,F=48000,W=16,M=stereo,T=Resolve \n",
      "                    : \n",
      "    time_reference  : 172800000\n",
      "    ISFT            : Lavf58.29.100\n",
      "    Stream #0:0: Audio: pcm_s16le ([1][0][0][0] / 0x0001), 48000 Hz, stereo, s16, 1536 kb/s\n",
      "Stream mapping:\n",
      "  Stream #0:0 -> #0:0 (copy)\n",
      "Press [q] to stop, [?] for help\n",
      "size=     936kB time=00:00:04.98 bitrate=1537.0kbits/s speed=1.48e+03x    \n",
      "video:0kB audio:936kB subtitle:0kB other streams:0kB global headers:0kB muxing overhead: 0.013981%\n",
      "ffmpeg version 4.2.2 Copyright (c) 2000-2019 the FFmpeg developers\n",
      "  built with gcc 7.3.0 (crosstool-NG 1.23.0.449-a04d0)\n",
      "  configuration: --prefix=/home/jini1114/.conda/envs/mdx-net --cc=/tmp/build/80754af9/ffmpeg_1587154242452/_build_env/bin/x86_64-conda_cos6-linux-gnu-cc --disable-doc --enable-avresample --enable-gmp --enable-hardcoded-tables --enable-libfreetype --enable-libvpx --enable-pthreads --enable-libopus --enable-postproc --enable-pic --enable-pthreads --enable-shared --enable-static --enable-version3 --enable-zlib --enable-libmp3lame --disable-nonfree --enable-gpl --enable-gnutls --disable-openssl --enable-libopenh264 --enable-libx264\n",
      "  libavutil      56. 31.100 / 56. 31.100\n",
      "  libavcodec     58. 54.100 / 58. 54.100\n",
      "  libavformat    58. 29.100 / 58. 29.100\n",
      "  libavdevice    58.  8.100 / 58.  8.100\n",
      "  libavfilter     7. 57.100 /  7. 57.100\n",
      "  libavresample   4.  0.  0 /  4.  0.  0\n",
      "  libswscale      5.  5.100 /  5.  5.100\n",
      "  libswresample   3.  5.100 /  3.  5.100\n",
      "  libpostproc    55.  5.100 / 55.  5.100\n",
      "Input #0, wav, from '/home/jini1114/git/mir-svc/data/raw_data/IU/1.wav':\n",
      "  Metadata:\n",
      "    comment         : Bwf\n",
      "    encoded_by      : DaVinci Resolve\n",
      "    originator_reference: USRESRESOLVE00000173644195213207\n",
      "    date            : 2022-04-18\n",
      "    creation_time   : 17:36:44\n",
      "    time_reference  : 172800000\n",
      "    coding_history  : A=PCM,F=48000,W=16,M=stereo,T=Resolve \n",
      "                    : \n",
      "  Duration: 00:00:44.15, bitrate: 1536 kb/s\n",
      "    Stream #0:0: Audio: pcm_s16le ([1][0][0][0] / 0x0001), 48000 Hz, stereo, s16, 1536 kb/s\n",
      "Output #0, wav, to '/home/jini1114/git/mir-svc/data/raw_data/IU4_1.wav':\n",
      "  Metadata:\n",
      "    ICMT            : Bwf\n",
      "    ITCH            : DaVinci Resolve\n",
      "    originator_reference: USRESRESOLVE00000173644195213207\n",
      "    ICRD            : 2022-04-18\n",
      "    coding_history  : A=PCM,F=48000,W=16,M=stereo,T=Resolve \n",
      "                    : \n",
      "    time_reference  : 172800000\n",
      "    ISFT            : Lavf58.29.100\n",
      "    Stream #0:0: Audio: pcm_s16le ([1][0][0][0] / 0x0001), 48000 Hz, stereo, s16, 1536 kb/s\n",
      "Stream mapping:\n",
      "  Stream #0:0 -> #0:0 (copy)\n",
      "Press [q] to stop, [?] for help\n",
      "size=     936kB time=00:00:04.98 bitrate=1539.5kbits/s speed=1.16e+03x    \n",
      "video:0kB audio:936kB subtitle:0kB other streams:0kB global headers:0kB muxing overhead: 0.013981%\n",
      "ffmpeg version 4.2.2 Copyright (c) 2000-2019 the FFmpeg developers\n",
      "  built with gcc 7.3.0 (crosstool-NG 1.23.0.449-a04d0)\n",
      "  configuration: --prefix=/home/jini1114/.conda/envs/mdx-net --cc=/tmp/build/80754af9/ffmpeg_1587154242452/_build_env/bin/x86_64-conda_cos6-linux-gnu-cc --disable-doc --enable-avresample --enable-gmp --enable-hardcoded-tables --enable-libfreetype --enable-libvpx --enable-pthreads --enable-libopus --enable-postproc --enable-pic --enable-pthreads --enable-shared --enable-static --enable-version3 --enable-zlib --enable-libmp3lame --disable-nonfree --enable-gpl --enable-gnutls --disable-openssl --enable-libopenh264 --enable-libx264\n",
      "  libavutil      56. 31.100 / 56. 31.100\n",
      "  libavcodec     58. 54.100 / 58. 54.100\n",
      "  libavformat    58. 29.100 / 58. 29.100\n",
      "  libavdevice    58.  8.100 / 58.  8.100\n",
      "  libavfilter     7. 57.100 /  7. 57.100\n",
      "  libavresample   4.  0.  0 /  4.  0.  0\n",
      "  libswscale      5.  5.100 /  5.  5.100\n",
      "  libswresample   3.  5.100 /  3.  5.100\n",
      "  libpostproc    55.  5.100 / 55.  5.100\n",
      "Input #0, wav, from '/home/jini1114/git/mir-svc/data/raw_data/IU/1.wav':\n",
      "  Metadata:\n",
      "    comment         : Bwf\n",
      "    encoded_by      : DaVinci Resolve\n",
      "    originator_reference: USRESRESOLVE00000173644195213207\n",
      "    date            : 2022-04-18\n",
      "    creation_time   : 17:36:44\n",
      "    time_reference  : 172800000\n",
      "    coding_history  : A=PCM,F=48000,W=16,M=stereo,T=Resolve \n",
      "                    : \n",
      "  Duration: 00:00:44.15, bitrate: 1536 kb/s\n",
      "    Stream #0:0: Audio: pcm_s16le ([1][0][0][0] / 0x0001), 48000 Hz, stereo, s16, 1536 kb/s\n",
      "Output #0, wav, to '/home/jini1114/git/mir-svc/data/raw_data/IU5_1.wav':\n",
      "  Metadata:\n",
      "    ICMT            : Bwf\n",
      "    ITCH            : DaVinci Resolve\n",
      "    originator_reference: USRESRESOLVE00000173644195213207\n",
      "    ICRD            : 2022-04-18\n",
      "    coding_history  : A=PCM,F=48000,W=16,M=stereo,T=Resolve \n",
      "                    : \n",
      "    time_reference  : 172800000\n",
      "    ISFT            : Lavf58.29.100\n",
      "    Stream #0:0: Audio: pcm_s16le ([1][0][0][0] / 0x0001), 48000 Hz, stereo, s16, 1536 kb/s\n",
      "Stream mapping:\n",
      "  Stream #0:0 -> #0:0 (copy)\n",
      "Press [q] to stop, [?] for help\n",
      "size=     940kB time=00:00:04.99 bitrate=1542.0kbits/s speed= 996x    \n",
      "video:0kB audio:940kB subtitle:0kB other streams:0kB global headers:0kB muxing overhead: 0.013921%\n",
      "ffmpeg version 4.2.2 Copyright (c) 2000-2019 the FFmpeg developers\n",
      "  built with gcc 7.3.0 (crosstool-NG 1.23.0.449-a04d0)\n",
      "  configuration: --prefix=/home/jini1114/.conda/envs/mdx-net --cc=/tmp/build/80754af9/ffmpeg_1587154242452/_build_env/bin/x86_64-conda_cos6-linux-gnu-cc --disable-doc --enable-avresample --enable-gmp --enable-hardcoded-tables --enable-libfreetype --enable-libvpx --enable-pthreads --enable-libopus --enable-postproc --enable-pic --enable-pthreads --enable-shared --enable-static --enable-version3 --enable-zlib --enable-libmp3lame --disable-nonfree --enable-gpl --enable-gnutls --disable-openssl --enable-libopenh264 --enable-libx264\n",
      "  libavutil      56. 31.100 / 56. 31.100\n",
      "  libavcodec     58. 54.100 / 58. 54.100\n",
      "  libavformat    58. 29.100 / 58. 29.100\n",
      "  libavdevice    58.  8.100 / 58.  8.100\n",
      "  libavfilter     7. 57.100 /  7. 57.100\n",
      "  libavresample   4.  0.  0 /  4.  0.  0\n",
      "  libswscale      5.  5.100 /  5.  5.100\n",
      "  libswresample   3.  5.100 /  3.  5.100\n",
      "  libpostproc    55.  5.100 / 55.  5.100\n",
      "Input #0, wav, from '/home/jini1114/git/mir-svc/data/raw_data/IU/1.wav':\n",
      "  Metadata:\n",
      "    comment         : Bwf\n",
      "    encoded_by      : DaVinci Resolve\n",
      "    originator_reference: USRESRESOLVE00000173644195213207\n",
      "    date            : 2022-04-18\n",
      "    creation_time   : 17:36:44\n",
      "    time_reference  : 172800000\n",
      "    coding_history  : A=PCM,F=48000,W=16,M=stereo,T=Resolve \n",
      "                    : \n",
      "  Duration: 00:00:44.15, bitrate: 1536 kb/s\n",
      "    Stream #0:0: Audio: pcm_s16le ([1][0][0][0] / 0x0001), 48000 Hz, stereo, s16, 1536 kb/s\n",
      "Output #0, wav, to '/home/jini1114/git/mir-svc/data/raw_data/IU6_1.wav':\n",
      "  Metadata:\n",
      "    ICMT            : Bwf\n",
      "    ITCH            : DaVinci Resolve\n",
      "    originator_reference: USRESRESOLVE00000173644195213207\n",
      "    ICRD            : 2022-04-18\n",
      "    coding_history  : A=PCM,F=48000,W=16,M=stereo,T=Resolve \n",
      "                    : \n",
      "    time_reference  : 172800000\n",
      "    ISFT            : Lavf58.29.100\n",
      "    Stream #0:0: Audio: pcm_s16le ([1][0][0][0] / 0x0001), 48000 Hz, stereo, s16, 1536 kb/s\n",
      "Stream mapping:\n",
      "  Stream #0:0 -> #0:0 (copy)\n",
      "Press [q] to stop, [?] for help\n",
      "size=     936kB time=00:00:04.98 bitrate=1537.9kbits/s speed= 961x    \n",
      "video:0kB audio:936kB subtitle:0kB other streams:0kB global headers:0kB muxing overhead: 0.013981%\n",
      "ffmpeg version 4.2.2 Copyright (c) 2000-2019 the FFmpeg developers\n",
      "  built with gcc 7.3.0 (crosstool-NG 1.23.0.449-a04d0)\n",
      "  configuration: --prefix=/home/jini1114/.conda/envs/mdx-net --cc=/tmp/build/80754af9/ffmpeg_1587154242452/_build_env/bin/x86_64-conda_cos6-linux-gnu-cc --disable-doc --enable-avresample --enable-gmp --enable-hardcoded-tables --enable-libfreetype --enable-libvpx --enable-pthreads --enable-libopus --enable-postproc --enable-pic --enable-pthreads --enable-shared --enable-static --enable-version3 --enable-zlib --enable-libmp3lame --disable-nonfree --enable-gpl --enable-gnutls --disable-openssl --enable-libopenh264 --enable-libx264\n",
      "  libavutil      56. 31.100 / 56. 31.100\n",
      "  libavcodec     58. 54.100 / 58. 54.100\n",
      "  libavformat    58. 29.100 / 58. 29.100\n",
      "  libavdevice    58.  8.100 / 58.  8.100\n",
      "  libavfilter     7. 57.100 /  7. 57.100\n",
      "  libavresample   4.  0.  0 /  4.  0.  0\n",
      "  libswscale      5.  5.100 /  5.  5.100\n",
      "  libswresample   3.  5.100 /  3.  5.100\n",
      "  libpostproc    55.  5.100 / 55.  5.100\n",
      "Input #0, wav, from '/home/jini1114/git/mir-svc/data/raw_data/IU/1.wav':\n",
      "  Metadata:\n",
      "    comment         : Bwf\n",
      "    encoded_by      : DaVinci Resolve\n",
      "    originator_reference: USRESRESOLVE00000173644195213207\n",
      "    date            : 2022-04-18\n",
      "    creation_time   : 17:36:44\n",
      "    time_reference  : 172800000\n",
      "    coding_history  : A=PCM,F=48000,W=16,M=stereo,T=Resolve \n",
      "                    : \n",
      "  Duration: 00:00:44.15, bitrate: 1536 kb/s\n",
      "    Stream #0:0: Audio: pcm_s16le ([1][0][0][0] / 0x0001), 48000 Hz, stereo, s16, 1536 kb/s\n",
      "Output #0, wav, to '/home/jini1114/git/mir-svc/data/raw_data/IU7_1.wav':\n",
      "  Metadata:\n",
      "    ICMT            : Bwf\n",
      "    ITCH            : DaVinci Resolve\n",
      "    originator_reference: USRESRESOLVE00000173644195213207\n",
      "    ICRD            : 2022-04-18\n",
      "    coding_history  : A=PCM,F=48000,W=16,M=stereo,T=Resolve \n",
      "                    : \n",
      "    time_reference  : 172800000\n",
      "    ISFT            : Lavf58.29.100\n",
      "    Stream #0:0: Audio: pcm_s16le ([1][0][0][0] / 0x0001), 48000 Hz, stereo, s16, 1536 kb/s\n",
      "Stream mapping:\n",
      "  Stream #0:0 -> #0:0 (copy)\n",
      "Press [q] to stop, [?] for help\n",
      "size=     936kB time=00:00:04.97 bitrate=1540.3kbits/s speed= 750x    \n",
      "video:0kB audio:936kB subtitle:0kB other streams:0kB global headers:0kB muxing overhead: 0.013981%\n"
     ]
    }
   ],
   "source": [
    "import os\n",
    "import subprocess\n",
    "\n",
    "\n",
    "\n",
    "for i in range(8):\n",
    "\n",
    "\tcommand = \"ffmpeg -i %s -acodec copy  -ss 00:00:%02d -to 00:00:%02d %s\"%('/home/jini1114/git/mir-svc/data/raw_data/IU/1.wav',i*5, (i+1)*5, '/home/jini1114/git/mir-svc/data/raw_data/IU/'+str(i)+'_1.wav')\n",
    "\tsubprocess.call(command, shell=True)\n",
    "\tcommand = \"ffmpeg -i %s -acodec copy  -ss 00:00:%02d -to 00:00:%02d %s\"%('/home/jini1114/git/mir-svc/data/raw_data/VIICHAN/1.wav',i*5, (i+1)*5, '/home/jini1114/git/mir-svc/data/raw_data/VIICHAN/'+str(i)+'_1.wav')\n",
    "\tsubprocess.call(command, shell=True)"
   ]
  },
  {
   "cell_type": "code",
   "execution_count": 2,
   "metadata": {},
   "outputs": [
    {
     "name": "stdout",
     "output_type": "stream",
     "text": [
      "0\n",
      "1\n",
      "2\n",
      "3\n",
      "4\n",
      "5\n",
      "6\n",
      "7\n",
      "7\n"
     ]
    }
   ],
   "source": [
    "\"test %d\"%(1)\n",
    "\n",
    "for i in range(8):\n",
    "    print(i)\n",
    "print(i)"
   ]
  },
  {
   "cell_type": "code",
   "execution_count": null,
   "metadata": {},
   "outputs": [],
   "source": []
  }
 ],
 "metadata": {
  "interpreter": {
   "hash": "f95a298f070223028a3213faf0e3e75206fe5e4b00596b819a44506a9d7d1ef1"
  },
  "kernelspec": {
   "display_name": "Python 3.8.13 ('mdx-net')",
   "language": "python",
   "name": "python3"
  },
  "language_info": {
   "codemirror_mode": {
    "name": "ipython",
    "version": 3
   },
   "file_extension": ".py",
   "mimetype": "text/x-python",
   "name": "python",
   "nbconvert_exporter": "python",
   "pygments_lexer": "ipython3",
   "version": "3.8.13"
  },
  "orig_nbformat": 4
 },
 "nbformat": 4,
 "nbformat_minor": 2
}
